<?xml version="1.0" encoding="UTF-8" standalone="no"?>
<svg
   version="1.1"
   width="10.0000in"
   height="8.7173in"
   viewBox="0 0 720.0003 627.6455"
   id="svg10"
   sodipodi:docname="Badan Pengawas Obat dan Manakan (BPOM).cdr"
   xmlns:inkscape="http://www.inkscape.org/namespaces/inkscape"
   xmlns:sodipodi="http://sodipodi.sourceforge.net/DTD/sodipodi-0.dtd"
   xmlns="http://www.w3.org/2000/svg"
   xmlns:svg="http://www.w3.org/2000/svg">
  <defs
     id="defs10" />
  <sodipodi:namedview
     id="namedview10"
     pagecolor="#ffffff"
     bordercolor="#000000"
     borderopacity="0.25"
     inkscape:showpageshadow="2"
     inkscape:pageopacity="0.0"
     inkscape:pagecheckerboard="0"
     inkscape:deskcolor="#d1d1d1"
     inkscape:document-units="in" />
  <g
     id="Layer1000">
    <g
       id="Layer1001">
      <path
         d="  M549.3501,16.9338 C536.3286,183.6388 486.2159,353.7306 363.1042,470.0101 C470.8269,360.5041 505.9453,191.1650 505.9453,45.1570 L549.3501,16.9338 L549.3501,16.9338 Z"
         style="fill-rule: evenodd; fill: #00a651; "
         id="path1" />
      <path
         d="  M145.2911,284.4897 C194.2201,337.5493 248.2788,355.6121 310.6238,314.9707 C366.6555,278.4687 408.4819,199.0675 436.8923,90.6904 L493.7131,53.4358 C493.7131,258.1480 406.5089,462.1076 309.8347,502.7490 C249.8572,462.4839 174.4907,379.6959 145.2911,284.4897 L145.2911,284.4897 Z Z M574.9984,0.0000 L563.1607,7.9024 C550.5338,168.5864 501.6048,328.8942 387.1741,449.3131 C512.6533,335.6677 563.5553,160.6840 574.9984,0.0000 L574.9984,0.0000 Z"
         style="fill-rule: evenodd; fill: #004282; "
         id="path2" />
    </g>
    <g
       id="Layer1002">
      <g
         id="Layer1003">
        <path
           d="  M0.0002,537.0251 C12.7926,537.1889 25.6076,536.7242 38.3761,537.1889 C50.9033,537.4885 63.8403,547.7867 62.2803,560.6763 C63.5515,570.1636 56.5192,577.6846 48.2156,581.5487 C57.5034,585.4828 63.7673,594.6702 62.2560,604.5964 C63.2884,616.7683 51.5764,625.9560 40.0553,627.6448 L0.0002,627.6448 L0.0002,537.0251 Z Z M22.4404,556.2091 L22.4404,556.2091 C22.6808,561.3933 22.6808,566.5763 22.4404,571.7612 C29.3038,573.8202 40.7767,572.1076 40.2961,563.1753 C39.0965,555.0983 28.9441,554.6822 22.4404,556.2091 Z Z M22.7285,590.1571 L22.7285,590.1571 C22.6325,595.5491 22.5842,600.9404 22.5116,606.3327 C29.3038,607.0260 40.8476,607.1898 40.2485,597.8872 C39.5521,589.2085 29.3038,589.8103 22.7285,590.1571 Z"
           style="fill-rule: evenodd; fill: #004282; "
           id="path3" />
      </g>
      <g
         id="Layer1004">
        <path
           d="  M100.8480,537.2114 C110.4238,536.8411 119.9996,537.0486 129.6000,537.0965 C138.1677,566.9465 148.6081,596.3368 157.8232,626.0254 C149.9520,625.8629 142.0807,626.0488 134.2081,625.7948 C133.1290,622.8321 132.0479,619.8704 130.9925,616.9539 C120.5041,616.6986 110.0161,616.8155 99.5517,616.8614 C98.4483,619.8922 97.3446,622.9246 96.2152,625.9560 C88.3923,625.9098 80.5676,625.9098 72.7440,626.0254 C81.8889,596.3593 92.2560,567.0397 100.8480,537.2114 Z Z M106.2483,594.4621 L106.2483,594.4621 C112.1523,594.8782 118.0809,594.8548 123.9848,594.6005 C121.7764,586.1536 117.2771,577.5680 115.2844,569.0528 C114.6846,569.3081 108.8641,586.5017 106.2483,594.4621 Z"
           style="fill-rule: evenodd; fill: #004282; "
           id="path4" />
      </g>
      <g
         id="Layer1005">
        <path
           d="  M169.2235,537.0033 C184.6073,537.6035 201.3113,534.7818 215.3767,542.3484 C228.0958,548.0166 236.9765,560.8844 237.5520,574.3526 C238.1285,585.0663 238.1518,596.5449 232.3678,606.1009 C226.1768,618.5499 212.3283,625.9781 198.5284,627.6448 L169.1998,627.6448 C169.1998,597.4228 169.1758,567.2253 169.2235,537.0033 Z Z M191.5673,559.4733 L191.5673,559.4733 C191.6153,574.1208 191.6879,588.7451 191.5440,603.3932 C199.2235,603.2782 207.6229,600.4552 211.8000,593.8368 C215.8556,588.2127 214.8481,580.9235 214.3195,574.4901 C212.1597,564.6563 201.6477,558.5938 191.5673,559.4733 Z"
           style="fill-rule: evenodd; fill: #004282; "
           id="path5" />
      </g>
      <g
         id="Layer1006">
        <path
           d="  M267.4318,545.6804 C268.8719,542.5800 268.0073,536.1241 273.2881,537.0251 C281.4478,537.2114 289.6554,536.5634 297.7442,537.3498 C308.2798,566.6222 316.5365,596.6126 326.9995,625.9098 C318.9600,625.9322 310.9446,626.0944 302.9284,625.7241 C301.8956,622.7168 300.7923,619.7317 299.6642,616.7683 C289.3197,616.7917 278.9766,616.9539 268.6321,616.6534 C267.4558,619.5001 266.5226,622.9011 265.7313,625.9098 C258.3325,625.9098 249.5038,625.7241 241.4154,625.9560 C250.3194,599.2751 258.7439,572.4320 267.4318,545.6804 Z Z M275.3037,594.8089 L275.3037,594.8089 C281.1121,594.7851 286.9444,594.7379 292.7758,594.7161 C290.6396,585.9914 287.3997,577.5915 284.5921,569.0528 C281.0621,576.5628 278.2079,586.2464 275.3037,594.8089 Z"
           style="fill-rule: evenodd; fill: #004282; "
           id="path6" />
      </g>
      <path
         d="  M338.2555,536.6565 C340.2752,536.6565 342.9224,536.7093 344.5874,536.7093 C357.2356,549.7141 372.0787,566.1165 385.3500,578.5192 C385.3500,564.6504 385.4885,550.9913 385.4885,536.4927 C392.6154,536.7242 399.7446,536.6783 406.8718,536.6331 C406.8232,566.6929 406.6327,596.5908 406.9677,626.6493 C405.3375,626.6493 403.3503,626.6493 401.4752,626.6493 C387.4348,612.6489 374.1848,597.4935 359.6156,583.9783 C360.6480,598.1868 359.4717,612.4425 360.1921,626.6493 C352.8717,626.8131 345.5769,626.8131 338.2555,626.6740 C338.3035,596.6598 338.6882,566.6694 338.2555,536.6565 Z"
         style="fill-rule: evenodd; fill: #004282; "
         id="path7" />
      <g
         id="Layer1007">
        <path
           d="  M448.4406,537.0251 C461.0888,537.3039 473.9521,536.0075 486.3845,538.7611 C494.5448,541.2849 502.8484,545.7735 506.8323,553.4330 C513.2888,564.8637 512.2320,580.1611 503.8565,590.4593 C495.7678,599.8993 482.3773,601.9577 470.4721,603.0232 C470.6639,611.2151 470.6886,619.4304 470.6639,627.6448 L448.4406,627.6448 C448.4406,597.4472 448.3923,567.2253 448.4406,537.0251 Z Z M470.6639,555.6083 L470.6639,555.6083 C470.6156,563.3374 470.6400,571.0425 470.5447,578.7716 C478.4886,580.4604 489.2161,576.6663 488.8081,567.4790 C489.3596,558.2913 478.7523,553.9879 470.6639,555.6083 Z"
           style="fill-rule: evenodd; fill: #00a651; "
           id="path8" />
      </g>
      <g
         id="Layer1008">
        <path
           d="  M553.3682,538.9002 C566.4963,535.6389 581.4961,536.2166 592.9447,543.8750 C615.4564,556.4654 621.9602,588.3530 606.4561,608.3462 C592.9923,628.1772 562.4891,633.6627 542.2810,620.4025 C528.9847,612.0025 519.9844,596.7982 521.0635,581.2953 C520.6329,562.2947 535.0075,544.9164 553.3682,538.9002 Z Z M557.7368,561.6014 L557.7368,561.6014 C550.8487,565.0500 545.6408,571.6443 544.2240,579.0269 C541.9676,592.4489 554.7120,606.0537 568.7767,605.3369 C583.1524,605.0833 594.9120,590.3886 590.7845,576.8969 C588.1201,563.0128 570.6008,555.5158 557.7368,561.6014 Z"
           style="fill-rule: evenodd; fill: #00a651; "
           id="path9" />
      </g>
      <path
         d="  M633.6006,537.5579 C640.7045,537.2349 647.8331,537.2349 654.9370,537.5579 C659.9523,550.3091 665.5675,562.8288 670.4887,575.6252 C676.5122,563.1753 681.1449,550.1466 686.6645,537.4885 C693.7194,537.2114 700.8007,537.1889 707.8560,537.4885 C712.2240,566.2295 715.4405,595.0863 720.0003,623.8041 L720.0003,627.6448 L694.6084,627.6448 C692.7120,614.4540 691.8241,601.1954 690.2641,587.9811 C683.1605,600.8017 677.6159,614.4084 671.3526,627.6448 L670.6805,627.6448 C663.8407,614.8021 658.0813,601.4507 652.0081,588.2599 C648.8405,601.1485 649.2238,614.5940 647.0154,627.6448 L620.8082,627.6448 C625.9677,597.7234 628.9682,567.5483 633.6006,537.5579 Z"
         style="fill-rule: evenodd; fill: #00a651; "
         id="path10" />
    </g>
  </g>
</svg>
