<?xml version="1.0" encoding="UTF-8" standalone="no"?>
<!DOCTYPE svg PUBLIC "-//W3C//DTD SVG 1.1//EN" "http://www.w3.org/Graphics/SVG/1.1/DTD/svg11.dtd">
<svg xmlns="http://www.w3.org/2000/svg" version="1.1" viewBox="0.00 0.00 1024.00 1024.00">
<g stroke-width="2.00" fill="none" stroke-linecap="butt">
<path stroke="#7d807e" vector-effect="non-scaling-stroke" d="
  M 591.54 677.18
  C 598.06 675.31 603.15 674.06 609.00 671.94
  Q 634.77 662.57 657.69 649.69
  A 2.58 2.12 5.5 0 0 658.06 649.44
  Q 659.02 648.64 660.34 647.99
  Q 661.84 647.25 662.55 646.82
  Q 682.95 634.44 694.88 624.37
  Q 722.60 600.98 744.75 569.28
  Q 753.03 557.42 762.63 538.34
  C 769.40 524.88 774.78 510.08 779.15 496.73
  Q 785.69 476.75 788.35 457.74
  Q 790.60 441.69 790.77 437.18
  Q 791.34 422.89 791.42 411.38
  Q 791.46 404.54 790.74 396.41
  C 789.26 379.91 787.08 362.85 782.96 348.02
  Q 782.84 347.59 780.79 340.57
  Q 774.21 318.13 772.58 313.64
  Q 768.23 301.63 761.66 289.60
  C 747.41 263.50 729.66 240.45 708.42 218.76
  Q 691.37 201.34 671.89 187.77
  Q 653.20 174.75 630.57 163.42
  C 616.79 156.52 601.88 152.31 586.09 147.59
  C 564.94 141.27 544.63 138.24 522.75 137.95
  Q 503.44 137.69 486.76 138.62
  Q 469.65 139.58 450.96 144.22
  Q 430.87 149.21 406.43 158.19
  Q 394.88 162.43 384.08 168.11
  Q 352.15 184.90 325.67 209.16
  Q 308.86 224.56 296.76 239.25
  C 281.28 258.03 268.44 279.90 258.68 300.92
  Q 249.52 320.65 242.79 346.52
  Q 240.11 356.81 239.04 365.00
  C 236.61 383.44 234.34 401.36 234.75 420.00
  Q 235.55 455.72 245.40 490.18
  C 249.29 503.79 253.69 517.54 260.33 529.68
  C 262.84 534.27 265.00 540.26 267.34 544.49
  C 276.34 560.72 284.37 574.65 295.78 587.94
  C 303.32 596.72 311.54 607.16 321.46 615.02
  Q 321.72 615.23 337.56 627.92
  C 351.39 639.00 367.57 649.70 384.48 657.54
  Q 407.65 668.28 428.59 675.05
  Q 444.88 680.31 469.70 684.47
  Q 486.72 687.32 505.05 687.46
  Q 523.24 687.60 540.51 686.55
  Q 551.02 685.92 569.50 682.77
  C 573.61 682.07 578.51 680.51 582.10 679.67
  Q 586.41 678.66 591.54 677.18"
/>
<path stroke="#7d807e" vector-effect="non-scaling-stroke" d="
  M 313.61 770.38
  Q 304.37 755.06 302.42 752.08
  Q 286.78 728.21 275.36 710.09
  C 273.40 706.98 272.64 705.30 269.22 704.84
  Q 253.96 702.79 238.96 703.16
  C 234.30 703.28 235.07 706.47 235.07 710.45
  Q 235.03 757.18 235.09 825.70
  A 1.79 1.78 -86.3 0 0 236.63 827.46
  C 246.76 828.84 257.36 827.82 267.80 827.19
  A 0.85 0.85 0.0 0 0 268.60 826.33
  Q 268.60 799.48 268.29 766.75
  Q 268.26 763.93 267.09 761.08
  A 0.20 0.19 65.6 0 1 267.18 760.83
  L 267.19 760.83
  A 0.16 0.16 0.0 0 1 267.40 760.89
  C 271.38 766.84 273.85 771.92 278.39 779.22
  Q 297.88 810.56 307.23 825.03
  Q 308.73 827.36 310.29 827.40
  Q 326.94 827.85 344.94 827.30
  A 0.69 0.69 0.0 0 0 345.61 826.61
  L 345.06 705.99
  A 1.46 1.46 0.0 0 0 343.55 704.53
  C 339.56 704.69 336.55 704.92 332.51 704.54
  Q 323.27 703.68 315.58 704.10
  A 2.31 2.30 -86.5 0 0 313.44 706.00
  Q 312.88 709.13 312.83 713.25
  Q 312.49 737.64 312.47 763.95
  A 5.06 4.90 -53.6 0 0 312.65 765.28
  L 314.06 770.19
  A 0.25 0.25 0.0 0 1 313.61 770.38"
/>
<path stroke="#7d807e" vector-effect="non-scaling-stroke" d="
  M 364.28 705.92
  Q 364.11 706.81 364.11 707.50
  Q 364.21 819.73 364.11 825.75
  Q 364.07 828.23 366.52 828.31
  C 381.44 828.81 396.10 827.17 409.72 827.39
  Q 421.08 827.57 424.81 827.17
  Q 432.30 826.37 439.77 824.99
  C 451.30 822.86 461.85 812.91 467.42 803.42
  C 472.85 794.18 475.18 784.53 476.72 773.77
  C 478.05 764.55 477.15 756.05 474.97 747.80
  C 472.29 737.66 468.12 727.37 461.58 718.95
  C 452.59 707.36 440.57 703.07 426.25 703.37
  Q 406.55 703.78 383.02 702.93
  C 378.03 702.75 372.35 703.36 366.93 703.62
  A 2.83 2.83 0.0 0 0 364.28 705.92"
/>
<path stroke="#7d807e" vector-effect="non-scaling-stroke" d="
  M 851.65 827.04
  Q 851.58 824.58 850.52 822.22
  Q 847.35 815.24 846.20 812.09
  Q 832.57 774.80 821.77 742.97
  Q 817.36 729.96 808.40 706.96
  C 807.43 704.48 806.74 704.01 804.23 703.82
  Q 788.59 702.58 770.84 703.38
  A 2.08 2.07 5.3 0 0 768.91 704.97
  C 768.32 707.49 767.85 710.34 766.95 712.71
  C 764.09 720.26 762.29 726.60 758.95 734.87
  Q 756.59 740.71 752.47 752.47
  Q 748.09 765.00 733.36 808.32
  C 731.46 813.92 728.52 819.97 727.33 824.57
  Q 726.86 826.37 726.86 826.38
  A 1.26 1.26 0.0 0 0 728.11 827.58
  L 760.75 827.73
  A 2.49 2.48 -82.7 0 0 763.17 825.85
  L 766.91 810.91
  A 0.53 0.53 0.0 0 1 767.42 810.51
  L 806.49 810.51
  A 1.10 1.09 79.5 0 1 807.51 811.22
  Q 809.92 817.54 810.82 825.75
  A 2.17 2.17 0.0 0 0 812.98 827.69
  L 851.01 827.69
  A 0.64 0.64 0.0 0 0 851.65 827.04"
/>
<path stroke="#7d807e" vector-effect="non-scaling-stroke" d="
  M 554.65 811.10
  Q 555.41 813.82 557.30 825.35
  Q 557.77 828.16 559.99 828.13
  Q 581.22 827.85 596.16 827.68
  A 1.17 1.16 82.5 0 0 597.27 826.23
  Q 595.73 820.26 593.80 814.98
  C 587.17 796.86 584.55 790.28 578.43 773.37
  Q 564.38 734.49 554.39 706.21
  C 553.36 703.28 552.06 703.46 549.25 703.42
  Q 539.59 703.28 520.31 703.41
  C 518.77 703.42 517.32 703.36 515.94 703.71
  Q 514.97 703.96 514.10 706.55
  C 507.07 727.47 504.11 737.14 498.16 753.79
  Q 495.79 760.42 478.94 808.69
  Q 475.94 817.29 471.42 825.71
  A 1.11 1.10 21.6 0 0 472.11 827.30
  Q 473.28 827.61 474.00 827.58
  Q 475.35 827.53 503.03 827.82
  Q 506.46 827.85 507.91 824.65
  Q 511.95 815.73 512.98 810.94
  A 0.52 0.51 -83.7 0 1 513.48 810.53
  L 553.90 810.53
  A 0.78 0.78 0.0 0 1 554.65 811.10"
/>
<path stroke="#7d807e" vector-effect="non-scaling-stroke" d="
  M 685.48 765.95
  Q 683.44 762.21 680.15 757.35
  C 672.12 745.46 664.84 735.78 658.77 725.52
  Q 655.44 719.89 645.91 705.08
  A 1.92 1.91 73.8 0 0 644.32 704.20
  Q 632.46 704.05 613.25 703.44
  C 610.04 703.34 606.66 703.23 606.47 707.26
  Q 606.32 710.40 606.32 714.77
  Q 606.28 808.56 606.40 822.25
  Q 606.42 823.78 606.63 826.16
  A 1.58 1.57 88.1 0 0 608.15 827.59
  L 639.93 828.52
  A 1.19 1.18 -89.3 0 0 641.15 827.32
  Q 640.89 807.73 640.77 778.20
  C 640.74 771.78 641.23 765.95 640.36 760.12
  A 0.14 0.14 0.0 0 1 640.62 760.05
  Q 641.80 762.93 642.50 764.00
  C 653.90 781.47 661.73 792.96 670.35 807.59
  Q 675.35 816.07 681.69 825.33
  Q 683.38 827.81 686.32 828.17
  Q 695.61 829.31 704.28 829.42
  Q 713.38 829.55 717.57 827.32
  A 1.73 1.66 4.0 0 0 718.11 826.87
  Q 718.86 825.91 718.92 823.69
  C 719.14 815.05 719.54 803.32 719.40 792.11
  Q 718.88 751.03 719.32 716.00
  Q 719.37 712.47 719.02 708.76
  C 718.53 703.58 715.56 704.19 710.75 704.03
  Q 697.96 703.61 689.31 703.60
  C 687.20 703.60 685.22 703.34 685.17 705.75
  Q 684.55 732.66 684.93 760.36
  C 684.96 762.63 685.78 764.26 685.84 765.85
  A 0.19 0.19 0.0 0 1 685.48 765.95"
/>
<path stroke="#7d807e" vector-effect="non-scaling-stroke" d="
  M 216.01 704.24
  L 183.85 704.30
  A 1.76 1.76 0.0 0 0 182.09 706.06
  L 182.30 823.96
  A 4.34 2.43 89.9 0 0 184.74 828.30
  L 215.56 828.24
  A 4.34 2.43 89.9 0 0 217.98 823.90
  L 217.77 706.00
  A 1.76 1.76 0.0 0 0 216.01 704.24"
/>
<path stroke="#7d807e" vector-effect="non-scaling-stroke" d="
  M 787.35 857.08
  A 2.79 2.79 0.0 0 0 784.56 854.29
  L 240.95 854.29
  A 2.79 2.79 0.0 0 0 238.16 857.08
  L 238.16 882.65
  A 2.79 2.79 0.0 0 0 240.95 885.44
  L 784.56 885.44
  A 2.79 2.79 0.0 0 0 787.35 882.65
  L 787.35 857.08"
/>
<path stroke="#7d807e" vector-effect="non-scaling-stroke" d="
  M 311.19 266.46
  Q 296.28 287.07 285.64 310.84
  Q 276.69 330.80 270.50 356.07
  Q 265.00 378.51 264.06 403.30
  Q 262.30 449.90 276.81 495.44
  C 286.71 526.50 304.55 555.14 326.55 579.01
  Q 345.07 599.10 369.63 615.43
  Q 411.97 643.57 461.52 653.15
  C 476.09 655.96 487.12 658.05 499.31 658.18
  C 511.67 658.30 525.88 658.36 538.51 657.26
  Q 577.42 653.86 614.65 637.73
  C 621.68 634.68 628.78 630.67 635.28 627.60
  Q 643.71 623.63 650.40 619.35
  Q 666.71 608.93 678.15 599.37
  Q 696.84 583.76 713.73 562.21
  Q 720.52 553.54 731.43 535.42
  Q 741.37 518.91 746.79 504.28
  Q 754.56 483.30 758.86 462.40
  C 759.80 457.82 759.64 453.82 760.53 448.88
  Q 761.68 442.49 762.16 432.00
  Q 763.47 403.04 759.73 378.01
  Q 757.40 362.46 754.74 353.73
  Q 752.08 344.99 743.31 321.42
  Q 736.80 303.94 725.02 285.30
  C 689.04 228.42 632.87 186.63 566.75 172.79
  Q 536.79 166.53 510.74 166.72
  Q 455.63 167.14 405.39 189.74
  C 377.31 202.37 354.17 219.37 332.14 240.97
  C 324.43 248.53 316.87 258.59 311.19 266.46"
/>
<path stroke="#7d807e" vector-effect="non-scaling-stroke" d="
  M 512.86 187.56
  A 0.68 0.67 -55.1 0 0 511.99 187.72
  Q 507.61 193.14 504.85 197.61
  C 501.53 202.98 498.21 211.44 494.28 220.90
  Q 485.43 242.16 473.78 262.18
  Q 466.01 275.53 447.97 300.38
  Q 427.43 328.67 418.19 341.44
  Q 398.90 368.05 387.32 391.55
  C 380.96 404.45 374.88 420.18 372.24 435.35
  Q 370.44 445.72 370.17 450.24
  C 369.39 463.58 368.63 475.84 370.85 488.75
  Q 374.54 510.29 384.49 528.50
  Q 404.10 564.39 438.24 586.34
  Q 448.68 593.05 459.83 597.48
  C 476.19 603.98 493.98 607.98 511.60 608.20
  Q 526.08 608.38 540.20 605.14
  C 563.70 599.76 586.44 589.05 604.71 573.25
  C 629.11 552.16 646.23 522.62 653.06 491.36
  Q 656.17 477.14 655.89 460.00
  Q 655.82 455.71 655.42 452.51
  C 654.58 445.89 654.24 439.95 652.96 433.99
  Q 649.41 417.52 643.22 403.24
  C 625.87 363.16 596.07 328.43 570.75 293.51
  Q 547.89 261.98 533.55 228.45
  Q 529.51 219.01 522.94 202.05
  C 520.63 196.09 518.04 190.67 512.86 187.56"
/>
<path stroke="#7b560c" vector-effect="non-scaling-stroke" d="
  M 409.24 512.04
  C 419.12 532.37 435.37 548.73 454.09 561.36
  Q 466.51 569.73 485.87 574.38
  Q 488.46 575.00 494.91 575.65
  C 502.33 576.39 510.28 577.87 517.58 577.75
  Q 535.82 577.47 550.23 571.73
  Q 582.48 558.88 603.59 531.13
  C 618.41 511.66 629.43 483.47 627.31 457.89
  Q 625.12 431.49 612.80 407.43"
/>
<path stroke="#7e5e0c" vector-effect="non-scaling-stroke" d="
  M 612.80 407.43
  C 599.27 381.77 584.56 362.45 565.49 336.80
  C 547.57 312.70 530.66 287.93 517.54 264.23
  Q 513.83 257.54 512.13 250.86
  L 512.12 250.86
  Q 511.91 252.98 511.74 254.08
  A 3.47 3.19 -29.4 0 1 511.41 255.10
  Q 506.98 263.86 502.23 270.90
  C 497.42 278.03 494.14 285.75 488.96 293.22
  Q 473.60 315.38 454.58 340.82
  Q 438.07 362.90 425.35 384.07
  C 412.10 406.11 401.91 427.87 400.23 453.00
  Q 399.58 462.67 399.74 471.24
  Q 400.12 492.64 409.24 512.04"
/>
<path stroke="#f7a700" vector-effect="non-scaling-stroke" d="
  M 612.80 407.43
  Q 611.96 413.39 611.88 415.95
  C 611.34 433.11 611.60 446.93 606.88 461.25
  C 602.54 474.42 593.36 486.73 580.97 492.83
  C 576.20 495.18 568.79 496.92 565.90 491.36
  C 563.61 486.95 565.43 479.27 566.95 474.31
  C 570.05 464.26 572.22 457.95 573.95 450.00
  C 580.88 418.14 572.79 386.82 557.27 358.70
  Q 544.17 334.95 519.06 289.37
  C 516.12 284.04 510.83 275.01 503.95 281.91
  Q 501.10 284.77 499.48 287.16
  Q 476.85 320.51 455.48 350.60
  Q 443.65 367.27 438.75 375.71
  C 423.02 402.84 412.71 431.65 411.30 463.05
  C 410.67 476.89 410.59 494.58 409.24 512.04"
/>
<path stroke="#f5c972" vector-effect="non-scaling-stroke" d="
  M 466.42 380.18
  A 0.68 0.65 -37.7 0 0 465.42 380.08
  Q 457.94 386.72 451.83 393.07
  C 443.79 401.42 440.35 410.20 434.63 422.29
  C 431.73 428.41 428.97 436.89 427.65 442.67
  C 425.77 450.93 425.97 457.71 425.92 467.60
  C 425.86 477.85 428.46 486.74 433.57 494.93
  Q 435.72 498.39 439.76 498.32
  Q 444.11 498.24 451.81 497.82
  Q 453.60 497.72 453.68 497.72
  C 457.15 497.87 457.69 495.58 459.56 492.32
  Q 464.29 484.08 464.10 474.02
  Q 463.91 464.48 463.50 462.00
  Q 459.88 439.99 459.68 433.01
  Q 459.22 416.45 459.64 412.99
  Q 461.58 396.97 466.40 380.73
  Q 466.52 380.33 466.42 380.18"
/>
<path stroke="#7d807e" vector-effect="non-scaling-stroke" d="
  M 399.01 735.34
  Q 399.36 736.62 399.35 737.00
  Q 399.21 756.84 399.66 778.51
  Q 399.87 788.39 399.37 795.69
  A 0.57 0.57 0.0 0 0 399.89 796.30
  Q 403.36 796.63 412.44 796.61
  C 419.28 796.59 424.26 794.30 429.12 789.91
  Q 438.71 781.27 438.97 769.50
  C 439.26 756.81 438.73 744.19 425.63 738.45
  Q 418.43 735.29 413.29 734.89
  Q 410.45 734.66 399.48 734.71
  A 0.50 0.50 0.0 0 0 399.01 735.34"
/>
<path stroke="#7d807e" vector-effect="non-scaling-stroke" d="
  M 787.08 744.61
  Q 786.57 748.89 786.34 749.53
  Q 781.31 763.46 778.40 777.82
  Q 778.20 778.81 776.87 780.44
  A 0.15 0.15 0.0 0 0 776.99 780.69
  L 796.87 780.69
  A 0.11 0.10 -11.0 0 0 796.97 780.55
  C 795.52 777.21 795.16 772.10 794.10 768.13
  C 790.95 756.29 789.70 750.12 787.40 744.57
  A 0.17 0.17 0.0 0 0 787.08 744.61"
/>
<path stroke="#7d807e" vector-effect="non-scaling-stroke" d="
  M 533.89 744.47
  Q 533.36 749.55 532.66 751.60
  Q 528.08 764.94 522.93 780.70
  A 0.26 0.25 -89.8 0 0 523.25 781.03
  Q 524.35 780.69 524.75 780.68
  Q 527.45 780.63 542.07 780.72
  C 542.74 780.73 543.29 781.07 543.70 781.15
  A 0.43 0.42 -88.0 0 0 544.20 780.68
  Q 543.91 778.28 542.58 774.28
  C 539.59 765.23 538.96 756.01 534.97 747.82
  A 5.09 5.02 32.4 0 1 534.46 745.61
  L 534.46 744.50
  A 0.29 0.29 0.0 0 0 533.89 744.47"
/>
</g>
<path fill="#f7f2e4" d="
  M 1024.00 0.00
  L 1024.00 1024.00
  L 0.00 1024.00
  L 0.00 0.00
  L 1024.00 0.00
  Z
  M 591.54 677.18
  C 598.06 675.31 603.15 674.06 609.00 671.94
  Q 634.77 662.57 657.69 649.69
  A 2.58 2.12 5.5 0 0 658.06 649.44
  Q 659.02 648.64 660.34 647.99
  Q 661.84 647.25 662.55 646.82
  Q 682.95 634.44 694.88 624.37
  Q 722.60 600.98 744.75 569.28
  Q 753.03 557.42 762.63 538.34
  C 769.40 524.88 774.78 510.08 779.15 496.73
  Q 785.69 476.75 788.35 457.74
  Q 790.60 441.69 790.77 437.18
  Q 791.34 422.89 791.42 411.38
  Q 791.46 404.54 790.74 396.41
  C 789.26 379.91 787.08 362.85 782.96 348.02
  Q 782.84 347.59 780.79 340.57
  Q 774.21 318.13 772.58 313.64
  Q 768.23 301.63 761.66 289.60
  C 747.41 263.50 729.66 240.45 708.42 218.76
  Q 691.37 201.34 671.89 187.77
  Q 653.20 174.75 630.57 163.42
  C 616.79 156.52 601.88 152.31 586.09 147.59
  C 564.94 141.27 544.63 138.24 522.75 137.95
  Q 503.44 137.69 486.76 138.62
  Q 469.65 139.58 450.96 144.22
  Q 430.87 149.21 406.43 158.19
  Q 394.88 162.43 384.08 168.11
  Q 352.15 184.90 325.67 209.16
  Q 308.86 224.56 296.76 239.25
  C 281.28 258.03 268.44 279.90 258.68 300.92
  Q 249.52 320.65 242.79 346.52
  Q 240.11 356.81 239.04 365.00
  C 236.61 383.44 234.34 401.36 234.75 420.00
  Q 235.55 455.72 245.40 490.18
  C 249.29 503.79 253.69 517.54 260.33 529.68
  C 262.84 534.27 265.00 540.26 267.34 544.49
  C 276.34 560.72 284.37 574.65 295.78 587.94
  C 303.32 596.72 311.54 607.16 321.46 615.02
  Q 321.72 615.23 337.56 627.92
  C 351.39 639.00 367.57 649.70 384.48 657.54
  Q 407.65 668.28 428.59 675.05
  Q 444.88 680.31 469.70 684.47
  Q 486.72 687.32 505.05 687.46
  Q 523.24 687.60 540.51 686.55
  Q 551.02 685.92 569.50 682.77
  C 573.61 682.07 578.51 680.51 582.10 679.67
  Q 586.41 678.66 591.54 677.18
  Z
  M 313.61 770.38
  Q 304.37 755.06 302.42 752.08
  Q 286.78 728.21 275.36 710.09
  C 273.40 706.98 272.64 705.30 269.22 704.84
  Q 253.96 702.79 238.96 703.16
  C 234.30 703.28 235.07 706.47 235.07 710.45
  Q 235.03 757.18 235.09 825.70
  A 1.79 1.78 -86.3 0 0 236.63 827.46
  C 246.76 828.84 257.36 827.82 267.80 827.19
  A 0.85 0.85 0.0 0 0 268.60 826.33
  Q 268.60 799.48 268.29 766.75
  Q 268.26 763.93 267.09 761.08
  A 0.20 0.19 65.6 0 1 267.18 760.83
  L 267.19 760.83
  A 0.16 0.16 0.0 0 1 267.40 760.89
  C 271.38 766.84 273.85 771.92 278.39 779.22
  Q 297.88 810.56 307.23 825.03
  Q 308.73 827.36 310.29 827.40
  Q 326.94 827.85 344.94 827.30
  A 0.69 0.69 0.0 0 0 345.61 826.61
  L 345.06 705.99
  A 1.46 1.46 0.0 0 0 343.55 704.53
  C 339.56 704.69 336.55 704.92 332.51 704.54
  Q 323.27 703.68 315.58 704.10
  A 2.31 2.30 -86.5 0 0 313.44 706.00
  Q 312.88 709.13 312.83 713.25
  Q 312.49 737.64 312.47 763.95
  A 5.06 4.90 -53.6 0 0 312.65 765.28
  L 314.06 770.19
  A 0.25 0.25 0.0 0 1 313.61 770.38
  Z
  M 364.28 705.92
  Q 364.11 706.81 364.11 707.50
  Q 364.21 819.73 364.11 825.75
  Q 364.07 828.23 366.52 828.31
  C 381.44 828.81 396.10 827.17 409.72 827.39
  Q 421.08 827.57 424.81 827.17
  Q 432.30 826.37 439.77 824.99
  C 451.30 822.86 461.85 812.91 467.42 803.42
  C 472.85 794.18 475.18 784.53 476.72 773.77
  C 478.05 764.55 477.15 756.05 474.97 747.80
  C 472.29 737.66 468.12 727.37 461.58 718.95
  C 452.59 707.36 440.57 703.07 426.25 703.37
  Q 406.55 703.78 383.02 702.93
  C 378.03 702.75 372.35 703.36 366.93 703.62
  A 2.83 2.83 0.0 0 0 364.28 705.92
  Z
  M 851.65 827.04
  Q 851.58 824.58 850.52 822.22
  Q 847.35 815.24 846.20 812.09
  Q 832.57 774.80 821.77 742.97
  Q 817.36 729.96 808.40 706.96
  C 807.43 704.48 806.74 704.01 804.23 703.82
  Q 788.59 702.58 770.84 703.38
  A 2.08 2.07 5.3 0 0 768.91 704.97
  C 768.32 707.49 767.85 710.34 766.95 712.71
  C 764.09 720.26 762.29 726.60 758.95 734.87
  Q 756.59 740.71 752.47 752.47
  Q 748.09 765.00 733.36 808.32
  C 731.46 813.92 728.52 819.97 727.33 824.57
  Q 726.86 826.37 726.86 826.38
  A 1.26 1.26 0.0 0 0 728.11 827.58
  L 760.75 827.73
  A 2.49 2.48 -82.7 0 0 763.17 825.85
  L 766.91 810.91
  A 0.53 0.53 0.0 0 1 767.42 810.51
  L 806.49 810.51
  A 1.10 1.09 79.5 0 1 807.51 811.22
  Q 809.92 817.54 810.82 825.75
  A 2.17 2.17 0.0 0 0 812.98 827.69
  L 851.01 827.69
  A 0.64 0.64 0.0 0 0 851.65 827.04
  Z
  M 554.65 811.10
  Q 555.41 813.82 557.30 825.35
  Q 557.77 828.16 559.99 828.13
  Q 581.22 827.85 596.16 827.68
  A 1.17 1.16 82.5 0 0 597.27 826.23
  Q 595.73 820.26 593.80 814.98
  C 587.17 796.86 584.55 790.28 578.43 773.37
  Q 564.38 734.49 554.39 706.21
  C 553.36 703.28 552.06 703.46 549.25 703.42
  Q 539.59 703.28 520.31 703.41
  C 518.77 703.42 517.32 703.36 515.94 703.71
  Q 514.97 703.96 514.10 706.55
  C 507.07 727.47 504.11 737.14 498.16 753.79
  Q 495.79 760.42 478.94 808.69
  Q 475.94 817.29 471.42 825.71
  A 1.11 1.10 21.6 0 0 472.11 827.30
  Q 473.28 827.61 474.00 827.58
  Q 475.35 827.53 503.03 827.82
  Q 506.46 827.85 507.91 824.65
  Q 511.95 815.73 512.98 810.94
  A 0.52 0.51 -83.7 0 1 513.48 810.53
  L 553.90 810.53
  A 0.78 0.78 0.0 0 1 554.65 811.10
  Z
  M 685.48 765.95
  Q 683.44 762.21 680.15 757.35
  C 672.12 745.46 664.84 735.78 658.77 725.52
  Q 655.44 719.89 645.91 705.08
  A 1.92 1.91 73.8 0 0 644.32 704.20
  Q 632.46 704.05 613.25 703.44
  C 610.04 703.34 606.66 703.23 606.47 707.26
  Q 606.32 710.40 606.32 714.77
  Q 606.28 808.56 606.40 822.25
  Q 606.42 823.78 606.63 826.16
  A 1.58 1.57 88.1 0 0 608.15 827.59
  L 639.93 828.52
  A 1.19 1.18 -89.3 0 0 641.15 827.32
  Q 640.89 807.73 640.77 778.20
  C 640.74 771.78 641.23 765.95 640.36 760.12
  A 0.14 0.14 0.0 0 1 640.62 760.05
  Q 641.80 762.93 642.50 764.00
  C 653.90 781.47 661.73 792.96 670.35 807.59
  Q 675.35 816.07 681.69 825.33
  Q 683.38 827.81 686.32 828.17
  Q 695.61 829.31 704.28 829.42
  Q 713.38 829.55 717.57 827.32
  A 1.73 1.66 4.0 0 0 718.11 826.87
  Q 718.86 825.91 718.92 823.69
  C 719.14 815.05 719.54 803.32 719.40 792.11
  Q 718.88 751.03 719.32 716.00
  Q 719.37 712.47 719.02 708.76
  C 718.53 703.58 715.56 704.19 710.75 704.03
  Q 697.96 703.61 689.31 703.60
  C 687.20 703.60 685.22 703.34 685.17 705.75
  Q 684.55 732.66 684.93 760.36
  C 684.96 762.63 685.78 764.26 685.84 765.85
  A 0.19 0.19 0.0 0 1 685.48 765.95
  Z
  M 216.01 704.24
  L 183.85 704.30
  A 1.76 1.76 0.0 0 0 182.09 706.06
  L 182.30 823.96
  A 4.34 2.43 89.9 0 0 184.74 828.30
  L 215.56 828.24
  A 4.34 2.43 89.9 0 0 217.98 823.90
  L 217.77 706.00
  A 1.76 1.76 0.0 0 0 216.01 704.24
  Z
  M 787.35 857.08
  A 2.79 2.79 0.0 0 0 784.56 854.29
  L 240.95 854.29
  A 2.79 2.79 0.0 0 0 238.16 857.08
  L 238.16 882.65
  A 2.79 2.79 0.0 0 0 240.95 885.44
  L 784.56 885.44
  A 2.79 2.79 0.0 0 0 787.35 882.65
  L 787.35 857.08
  Z"
/>
<path fill="#020d18" d="
  M 582.10 679.67
  C 578.51 680.51 573.61 682.07 569.50 682.77
  Q 551.02 685.92 540.51 686.55
  Q 523.24 687.60 505.05 687.46
  Q 486.72 687.32 469.70 684.47
  Q 444.88 680.31 428.59 675.05
  Q 407.65 668.28 384.48 657.54
  C 367.57 649.70 351.39 639.00 337.56 627.92
  Q 321.72 615.23 321.46 615.02
  C 311.54 607.16 303.32 596.72 295.78 587.94
  C 284.37 574.65 276.34 560.72 267.34 544.49
  C 265.00 540.26 262.84 534.27 260.33 529.68
  C 253.69 517.54 249.29 503.79 245.40 490.18
  Q 235.55 455.72 234.75 420.00
  C 234.34 401.36 236.61 383.44 239.04 365.00
  Q 240.11 356.81 242.79 346.52
  Q 249.52 320.65 258.68 300.92
  C 268.44 279.90 281.28 258.03 296.76 239.25
  Q 308.86 224.56 325.67 209.16
  Q 352.15 184.90 384.08 168.11
  Q 394.88 162.43 406.43 158.19
  Q 430.87 149.21 450.96 144.22
  Q 469.65 139.58 486.76 138.62
  Q 503.44 137.69 522.75 137.95
  C 544.63 138.24 564.94 141.27 586.09 147.59
  C 601.88 152.31 616.79 156.52 630.57 163.42
  Q 653.20 174.75 671.89 187.77
  Q 691.37 201.34 708.42 218.76
  C 729.66 240.45 747.41 263.50 761.66 289.60
  Q 768.23 301.63 772.58 313.64
  Q 774.21 318.13 780.79 340.57
  Q 782.84 347.59 782.96 348.02
  C 787.08 362.85 789.26 379.91 790.74 396.41
  Q 791.46 404.54 791.42 411.38
  Q 791.34 422.89 790.77 437.18
  Q 790.60 441.69 788.35 457.74
  Q 785.69 476.75 779.15 496.73
  C 774.78 510.08 769.40 524.88 762.63 538.34
  Q 753.03 557.42 744.75 569.28
  Q 722.60 600.98 694.88 624.37
  Q 682.95 634.44 662.55 646.82
  Q 661.84 647.25 660.34 647.99
  Q 659.02 648.64 658.06 649.44
  A 2.58 2.12 5.5 0 1 657.69 649.69
  Q 634.77 662.57 609.00 671.94
  C 603.15 674.06 598.06 675.31 591.54 677.18
  Q 586.41 678.66 582.10 679.67
  Z
  M 311.19 266.46
  Q 296.28 287.07 285.64 310.84
  Q 276.69 330.80 270.50 356.07
  Q 265.00 378.51 264.06 403.30
  Q 262.30 449.90 276.81 495.44
  C 286.71 526.50 304.55 555.14 326.55 579.01
  Q 345.07 599.10 369.63 615.43
  Q 411.97 643.57 461.52 653.15
  C 476.09 655.96 487.12 658.05 499.31 658.18
  C 511.67 658.30 525.88 658.36 538.51 657.26
  Q 577.42 653.86 614.65 637.73
  C 621.68 634.68 628.78 630.67 635.28 627.60
  Q 643.71 623.63 650.40 619.35
  Q 666.71 608.93 678.15 599.37
  Q 696.84 583.76 713.73 562.21
  Q 720.52 553.54 731.43 535.42
  Q 741.37 518.91 746.79 504.28
  Q 754.56 483.30 758.86 462.40
  C 759.80 457.82 759.64 453.82 760.53 448.88
  Q 761.68 442.49 762.16 432.00
  Q 763.47 403.04 759.73 378.01
  Q 757.40 362.46 754.74 353.73
  Q 752.08 344.99 743.31 321.42
  Q 736.80 303.94 725.02 285.30
  C 689.04 228.42 632.87 186.63 566.75 172.79
  Q 536.79 166.53 510.74 166.72
  Q 455.63 167.14 405.39 189.74
  C 377.31 202.37 354.17 219.37 332.14 240.97
  C 324.43 248.53 316.87 258.59 311.19 266.46
  Z"
/>
<path fill="#f7f2e4" d="
  M 311.19 266.46
  C 316.87 258.59 324.43 248.53 332.14 240.97
  C 354.17 219.37 377.31 202.37 405.39 189.74
  Q 455.63 167.14 510.74 166.72
  Q 536.79 166.53 566.75 172.79
  C 632.87 186.63 689.04 228.42 725.02 285.30
  Q 736.80 303.94 743.31 321.42
  Q 752.08 344.99 754.74 353.73
  Q 757.40 362.46 759.73 378.01
  Q 763.47 403.04 762.16 432.00
  Q 761.68 442.49 760.53 448.88
  C 759.64 453.82 759.80 457.82 758.86 462.40
  Q 754.56 483.30 746.79 504.28
  Q 741.37 518.91 731.43 535.42
  Q 720.52 553.54 713.73 562.21
  Q 696.84 583.76 678.15 599.37
  Q 666.71 608.93 650.40 619.35
  Q 643.71 623.63 635.28 627.60
  C 628.78 630.67 621.68 634.68 614.65 637.73
  Q 577.42 653.86 538.51 657.26
  C 525.88 658.36 511.67 658.30 499.31 658.18
  C 487.12 658.05 476.09 655.96 461.52 653.15
  Q 411.97 643.57 369.63 615.43
  Q 345.07 599.10 326.55 579.01
  C 304.55 555.14 286.71 526.50 276.81 495.44
  Q 262.30 449.90 264.06 403.30
  Q 265.00 378.51 270.50 356.07
  Q 276.69 330.80 285.64 310.84
  Q 296.28 287.07 311.19 266.46
  Z
  M 512.86 187.56
  A 0.68 0.67 -55.1 0 0 511.99 187.72
  Q 507.61 193.14 504.85 197.61
  C 501.53 202.98 498.21 211.44 494.28 220.90
  Q 485.43 242.16 473.78 262.18
  Q 466.01 275.53 447.97 300.38
  Q 427.43 328.67 418.19 341.44
  Q 398.90 368.05 387.32 391.55
  C 380.96 404.45 374.88 420.18 372.24 435.35
  Q 370.44 445.72 370.17 450.24
  C 369.39 463.58 368.63 475.84 370.85 488.75
  Q 374.54 510.29 384.49 528.50
  Q 404.10 564.39 438.24 586.34
  Q 448.68 593.05 459.83 597.48
  C 476.19 603.98 493.98 607.98 511.60 608.20
  Q 526.08 608.38 540.20 605.14
  C 563.70 599.76 586.44 589.05 604.71 573.25
  C 629.11 552.16 646.23 522.62 653.06 491.36
  Q 656.17 477.14 655.89 460.00
  Q 655.82 455.71 655.42 452.51
  C 654.58 445.89 654.24 439.95 652.96 433.99
  Q 649.41 417.52 643.22 403.24
  C 625.87 363.16 596.07 328.43 570.75 293.51
  Q 547.89 261.98 533.55 228.45
  Q 529.51 219.01 522.94 202.05
  C 520.63 196.09 518.04 190.67 512.86 187.56
  Z"
/>
<path fill="#020d18" d="
  M 512.86 187.56
  C 518.04 190.67 520.63 196.09 522.94 202.05
  Q 529.51 219.01 533.55 228.45
  Q 547.89 261.98 570.75 293.51
  C 596.07 328.43 625.87 363.16 643.22 403.24
  Q 649.41 417.52 652.96 433.99
  C 654.24 439.95 654.58 445.89 655.42 452.51
  Q 655.82 455.71 655.89 460.00
  Q 656.17 477.14 653.06 491.36
  C 646.23 522.62 629.11 552.16 604.71 573.25
  C 586.44 589.05 563.70 599.76 540.20 605.14
  Q 526.08 608.38 511.60 608.20
  C 493.98 607.98 476.19 603.98 459.83 597.48
  Q 448.68 593.05 438.24 586.34
  Q 404.10 564.39 384.49 528.50
  Q 374.54 510.29 370.85 488.75
  C 368.63 475.84 369.39 463.58 370.17 450.24
  Q 370.44 445.72 372.24 435.35
  C 374.88 420.18 380.96 404.45 387.32 391.55
  Q 398.90 368.05 418.19 341.44
  Q 427.43 328.67 447.97 300.38
  Q 466.01 275.53 473.78 262.18
  Q 485.43 242.16 494.28 220.90
  C 498.21 211.44 501.53 202.98 504.85 197.61
  Q 507.61 193.14 511.99 187.72
  A 0.68 0.67 -55.1 0 1 512.86 187.56
  Z
  M 409.24 512.04
  C 419.12 532.37 435.37 548.73 454.09 561.36
  Q 466.51 569.73 485.87 574.38
  Q 488.46 575.00 494.91 575.65
  C 502.33 576.39 510.28 577.87 517.58 577.75
  Q 535.82 577.47 550.23 571.73
  Q 582.48 558.88 603.59 531.13
  C 618.41 511.66 629.43 483.47 627.31 457.89
  Q 625.12 431.49 612.80 407.43
  C 599.27 381.77 584.56 362.45 565.49 336.80
  C 547.57 312.70 530.66 287.93 517.54 264.23
  Q 513.83 257.54 512.13 250.86
  L 512.12 250.86
  Q 511.91 252.98 511.74 254.08
  A 3.47 3.19 -29.4 0 1 511.41 255.10
  Q 506.98 263.86 502.23 270.90
  C 497.42 278.03 494.14 285.75 488.96 293.22
  Q 473.60 315.38 454.58 340.82
  Q 438.07 362.90 425.35 384.07
  C 412.10 406.11 401.91 427.87 400.23 453.00
  Q 399.58 462.67 399.74 471.24
  Q 400.12 492.64 409.24 512.04
  Z"
/>
<path fill="#faaf00" d="
  M 612.80 407.43
  Q 611.96 413.39 611.88 415.95
  C 611.34 433.11 611.60 446.93 606.88 461.25
  C 602.54 474.42 593.36 486.73 580.97 492.83
  C 576.20 495.18 568.79 496.92 565.90 491.36
  C 563.61 486.95 565.43 479.27 566.95 474.31
  C 570.05 464.26 572.22 457.95 573.95 450.00
  C 580.88 418.14 572.79 386.82 557.27 358.70
  Q 544.17 334.95 519.06 289.37
  C 516.12 284.04 510.83 275.01 503.95 281.91
  Q 501.10 284.77 499.48 287.16
  Q 476.85 320.51 455.48 350.60
  Q 443.65 367.27 438.75 375.71
  C 423.02 402.84 412.71 431.65 411.30 463.05
  C 410.67 476.89 410.59 494.58 409.24 512.04
  Q 400.12 492.64 399.74 471.24
  Q 399.58 462.67 400.23 453.00
  C 401.91 427.87 412.10 406.11 425.35 384.07
  Q 438.07 362.90 454.58 340.82
  Q 473.60 315.38 488.96 293.22
  C 494.14 285.75 497.42 278.03 502.23 270.90
  Q 506.98 263.86 511.41 255.10
  A 3.47 3.19 -29.4 0 0 511.74 254.08
  Q 511.91 252.98 512.12 250.86
  L 512.13 250.86
  Q 513.83 257.54 517.54 264.23
  C 530.66 287.93 547.57 312.70 565.49 336.80
  C 584.56 362.45 599.27 381.77 612.80 407.43
  Z"
/>
<path fill="#f39f00" d="
  M 612.80 407.43
  Q 625.12 431.49 627.31 457.89
  C 629.43 483.47 618.41 511.66 603.59 531.13
  Q 582.48 558.88 550.23 571.73
  Q 535.82 577.47 517.58 577.75
  C 510.28 577.87 502.33 576.39 494.91 575.65
  Q 488.46 575.00 485.87 574.38
  Q 466.51 569.73 454.09 561.36
  C 435.37 548.73 419.12 532.37 409.24 512.04
  C 410.59 494.58 410.67 476.89 411.30 463.05
  C 412.71 431.65 423.02 402.84 438.75 375.71
  Q 443.65 367.27 455.48 350.60
  Q 476.85 320.51 499.48 287.16
  Q 501.10 284.77 503.95 281.91
  C 510.83 275.01 516.12 284.04 519.06 289.37
  Q 544.17 334.95 557.27 358.70
  C 572.79 386.82 580.88 418.14 573.95 450.00
  C 572.22 457.95 570.05 464.26 566.95 474.31
  C 565.43 479.27 563.61 486.95 565.90 491.36
  C 568.79 496.92 576.20 495.18 580.97 492.83
  C 593.36 486.73 602.54 474.42 606.88 461.25
  C 611.60 446.93 611.34 433.11 611.88 415.95
  Q 611.96 413.39 612.80 407.43
  Z
  M 466.42 380.18
  A 0.68 0.65 -37.7 0 0 465.42 380.08
  Q 457.94 386.72 451.83 393.07
  C 443.79 401.42 440.35 410.20 434.63 422.29
  C 431.73 428.41 428.97 436.89 427.65 442.67
  C 425.77 450.93 425.97 457.71 425.92 467.60
  C 425.86 477.85 428.46 486.74 433.57 494.93
  Q 435.72 498.39 439.76 498.32
  Q 444.11 498.24 451.81 497.82
  Q 453.60 497.72 453.68 497.72
  C 457.15 497.87 457.69 495.58 459.56 492.32
  Q 464.29 484.08 464.10 474.02
  Q 463.91 464.48 463.50 462.00
  Q 459.88 439.99 459.68 433.01
  Q 459.22 416.45 459.64 412.99
  Q 461.58 396.97 466.40 380.73
  Q 466.52 380.33 466.42 380.18
  Z"
/>
<path fill="#f7f2e4" d="
  M 466.42 380.18
  Q 466.52 380.33 466.40 380.73
  Q 461.58 396.97 459.64 412.99
  Q 459.22 416.45 459.68 433.01
  Q 459.88 439.99 463.50 462.00
  Q 463.91 464.48 464.10 474.02
  Q 464.29 484.08 459.56 492.32
  C 457.69 495.58 457.15 497.87 453.68 497.72
  Q 453.60 497.72 451.81 497.82
  Q 444.11 498.24 439.76 498.32
  Q 435.72 498.39 433.57 494.93
  C 428.46 486.74 425.86 477.85 425.92 467.60
  C 425.97 457.71 425.77 450.93 427.65 442.67
  C 428.97 436.89 431.73 428.41 434.63 422.29
  C 440.35 410.20 443.79 401.42 451.83 393.07
  Q 457.94 386.72 465.42 380.08
  A 0.68 0.65 -37.7 0 1 466.42 380.18
  Z"
/>
<path fill="#020d18" d="
  M 314.06 770.19
  L 312.65 765.28
  A 5.06 4.90 -53.6 0 1 312.47 763.95
  Q 312.49 737.64 312.83 713.25
  Q 312.88 709.13 313.44 706.00
  A 2.31 2.30 -86.5 0 1 315.58 704.10
  Q 323.27 703.68 332.51 704.54
  C 336.55 704.92 339.56 704.69 343.55 704.53
  A 1.46 1.46 0.0 0 1 345.06 705.99
  L 345.61 826.61
  A 0.69 0.69 0.0 0 1 344.94 827.30
  Q 326.94 827.85 310.29 827.40
  Q 308.73 827.36 307.23 825.03
  Q 297.88 810.56 278.39 779.22
  C 273.85 771.92 271.38 766.84 267.40 760.89
  A 0.16 0.16 0.0 0 0 267.19 760.83
  L 267.18 760.83
  A 0.20 0.19 65.6 0 0 267.09 761.08
  Q 268.26 763.93 268.29 766.75
  Q 268.60 799.48 268.60 826.33
  A 0.85 0.85 0.0 0 1 267.80 827.19
  C 257.36 827.82 246.76 828.84 236.63 827.46
  A 1.79 1.78 -86.3 0 1 235.09 825.70
  Q 235.03 757.18 235.07 710.45
  C 235.07 706.47 234.30 703.28 238.96 703.16
  Q 253.96 702.79 269.22 704.84
  C 272.64 705.30 273.40 706.98 275.36 710.09
  Q 286.78 728.21 302.42 752.08
  Q 304.37 755.06 313.61 770.38
  A 0.25 0.25 0.0 0 0 314.06 770.19
  Z"
/>
<path fill="#020d18" d="
  M 364.28 705.92
  A 2.83 2.83 0.0 0 1 366.93 703.62
  C 372.35 703.36 378.03 702.75 383.02 702.93
  Q 406.55 703.78 426.25 703.37
  C 440.57 703.07 452.59 707.36 461.58 718.95
  C 468.12 727.37 472.29 737.66 474.97 747.80
  C 477.15 756.05 478.05 764.55 476.72 773.77
  C 475.18 784.53 472.85 794.18 467.42 803.42
  C 461.85 812.91 451.30 822.86 439.77 824.99
  Q 432.30 826.37 424.81 827.17
  Q 421.08 827.57 409.72 827.39
  C 396.10 827.17 381.44 828.81 366.52 828.31
  Q 364.07 828.23 364.11 825.75
  Q 364.21 819.73 364.11 707.50
  Q 364.11 706.81 364.28 705.92
  Z
  M 399.01 735.34
  Q 399.36 736.62 399.35 737.00
  Q 399.21 756.84 399.66 778.51
  Q 399.87 788.39 399.37 795.69
  A 0.57 0.57 0.0 0 0 399.89 796.30
  Q 403.36 796.63 412.44 796.61
  C 419.28 796.59 424.26 794.30 429.12 789.91
  Q 438.71 781.27 438.97 769.50
  C 439.26 756.81 438.73 744.19 425.63 738.45
  Q 418.43 735.29 413.29 734.89
  Q 410.45 734.66 399.48 734.71
  A 0.50 0.50 0.0 0 0 399.01 735.34
  Z"
/>
<path fill="#020d18" d="
  M 851.65 827.04
  A 0.64 0.64 0.0 0 1 851.01 827.69
  L 812.98 827.69
  A 2.17 2.17 0.0 0 1 810.82 825.75
  Q 809.92 817.54 807.51 811.22
  A 1.10 1.09 79.5 0 0 806.49 810.51
  L 767.42 810.51
  A 0.53 0.53 0.0 0 0 766.91 810.91
  L 763.17 825.85
  A 2.49 2.48 -82.7 0 1 760.75 827.73
  L 728.11 827.58
  A 1.26 1.26 0.0 0 1 726.86 826.38
  Q 726.86 826.37 727.33 824.57
  C 728.52 819.97 731.46 813.92 733.36 808.32
  Q 748.09 765.00 752.47 752.47
  Q 756.59 740.71 758.95 734.87
  C 762.29 726.60 764.09 720.26 766.95 712.71
  C 767.85 710.34 768.32 707.49 768.91 704.97
  A 2.08 2.07 5.3 0 1 770.84 703.38
  Q 788.59 702.58 804.23 703.82
  C 806.74 704.01 807.43 704.48 808.40 706.96
  Q 817.36 729.96 821.77 742.97
  Q 832.57 774.80 846.20 812.09
  Q 847.35 815.24 850.52 822.22
  Q 851.58 824.58 851.65 827.04
  Z
  M 787.08 744.61
  Q 786.57 748.89 786.34 749.53
  Q 781.31 763.46 778.40 777.82
  Q 778.20 778.81 776.87 780.44
  A 0.15 0.15 0.0 0 0 776.99 780.69
  L 796.87 780.69
  A 0.11 0.10 -11.0 0 0 796.97 780.55
  C 795.52 777.21 795.16 772.10 794.10 768.13
  C 790.95 756.29 789.70 750.12 787.40 744.57
  A 0.17 0.17 0.0 0 0 787.08 744.61
  Z"
/>
<path fill="#020d18" d="
  M 553.90 810.53
  L 513.48 810.53
  A 0.52 0.51 -83.7 0 0 512.98 810.94
  Q 511.95 815.73 507.91 824.65
  Q 506.46 827.85 503.03 827.82
  Q 475.35 827.53 474.00 827.58
  Q 473.28 827.61 472.11 827.30
  A 1.11 1.10 21.6 0 1 471.42 825.71
  Q 475.94 817.29 478.94 808.69
  Q 495.79 760.42 498.16 753.79
  C 504.11 737.14 507.07 727.47 514.10 706.55
  Q 514.97 703.96 515.94 703.71
  C 517.32 703.36 518.77 703.42 520.31 703.41
  Q 539.59 703.28 549.25 703.42
  C 552.06 703.46 553.36 703.28 554.39 706.21
  Q 564.38 734.49 578.43 773.37
  C 584.55 790.28 587.17 796.86 593.80 814.98
  Q 595.73 820.26 597.27 826.23
  A 1.17 1.16 82.5 0 1 596.16 827.68
  Q 581.22 827.85 559.99 828.13
  Q 557.77 828.16 557.30 825.35
  Q 555.41 813.82 554.65 811.10
  A 0.78 0.78 0.0 0 0 553.90 810.53
  Z
  M 533.89 744.47
  Q 533.36 749.55 532.66 751.60
  Q 528.08 764.94 522.93 780.70
  A 0.26 0.25 -89.8 0 0 523.25 781.03
  Q 524.35 780.69 524.75 780.68
  Q 527.45 780.63 542.07 780.72
  C 542.74 780.73 543.29 781.07 543.70 781.15
  A 0.43 0.42 -88.0 0 0 544.20 780.68
  Q 543.91 778.28 542.58 774.28
  C 539.59 765.23 538.96 756.01 534.97 747.82
  A 5.09 5.02 32.4 0 1 534.46 745.61
  L 534.46 744.50
  A 0.29 0.29 0.0 0 0 533.89 744.47
  Z"
/>
<path fill="#020d18" d="
  M 685.84 765.85
  C 685.78 764.26 684.96 762.63 684.93 760.36
  Q 684.55 732.66 685.17 705.75
  C 685.22 703.34 687.20 703.60 689.31 703.60
  Q 697.96 703.61 710.75 704.03
  C 715.56 704.19 718.53 703.58 719.02 708.76
  Q 719.37 712.47 719.32 716.00
  Q 718.88 751.03 719.40 792.11
  C 719.54 803.32 719.14 815.05 718.92 823.69
  Q 718.86 825.91 718.11 826.87
  A 1.73 1.66 4.0 0 1 717.57 827.32
  Q 713.38 829.55 704.28 829.42
  Q 695.61 829.31 686.32 828.17
  Q 683.38 827.81 681.69 825.33
  Q 675.35 816.07 670.35 807.59
  C 661.73 792.96 653.90 781.47 642.50 764.00
  Q 641.80 762.93 640.62 760.05
  A 0.14 0.14 0.0 0 0 640.36 760.12
  C 641.23 765.95 640.74 771.78 640.77 778.20
  Q 640.89 807.73 641.15 827.32
  A 1.19 1.18 -89.3 0 1 639.93 828.52
  L 608.15 827.59
  A 1.58 1.57 88.1 0 1 606.63 826.16
  Q 606.42 823.78 606.40 822.25
  Q 606.28 808.56 606.32 714.77
  Q 606.32 710.40 606.47 707.26
  C 606.66 703.23 610.04 703.34 613.25 703.44
  Q 632.46 704.05 644.32 704.20
  A 1.92 1.91 73.8 0 1 645.91 705.08
  Q 655.44 719.89 658.77 725.52
  C 664.84 735.78 672.12 745.46 680.15 757.35
  Q 683.44 762.21 685.48 765.95
  A 0.19 0.19 0.0 0 0 685.84 765.85
  Z"
/>
<path fill="#020d18" d="
  M 216.01 704.24
  A 1.76 1.76 0.0 0 1 217.77 706.00
  L 217.98 823.90
  A 4.34 2.43 89.9 0 1 215.56 828.24
  L 184.74 828.30
  A 4.34 2.43 89.9 0 1 182.30 823.96
  L 182.09 706.06
  A 1.76 1.76 0.0 0 1 183.85 704.30
  L 216.01 704.24
  Z"
/>
<path fill="#f7f2e4" d="
  M 399.48 734.71
  Q 410.45 734.66 413.29 734.89
  Q 418.43 735.29 425.63 738.45
  C 438.73 744.19 439.26 756.81 438.97 769.50
  Q 438.71 781.27 429.12 789.91
  C 424.26 794.30 419.28 796.59 412.44 796.61
  Q 403.36 796.63 399.89 796.30
  A 0.57 0.57 0.0 0 1 399.37 795.69
  Q 399.87 788.39 399.66 778.51
  Q 399.21 756.84 399.35 737.00
  Q 399.36 736.62 399.01 735.34
  A 0.50 0.50 0.0 0 1 399.48 734.71
  Z"
/>
<path fill="#f7f2e4" d="
  M 534.46 744.50
  L 534.46 745.61
  A 5.09 5.02 32.4 0 0 534.97 747.82
  C 538.96 756.01 539.59 765.23 542.58 774.28
  Q 543.91 778.28 544.20 780.68
  A 0.43 0.42 -88.0 0 1 543.70 781.15
  C 543.29 781.07 542.74 780.73 542.07 780.72
  Q 527.45 780.63 524.75 780.68
  Q 524.35 780.69 523.25 781.03
  A 0.26 0.25 -89.8 0 1 522.93 780.70
  Q 528.08 764.94 532.66 751.60
  Q 533.36 749.55 533.89 744.47
  A 0.29 0.29 0.0 0 1 534.46 744.50
  Z"
/>
<path fill="#f7f2e4" d="
  M 787.40 744.57
  C 789.70 750.12 790.95 756.29 794.10 768.13
  C 795.16 772.10 795.52 777.21 796.97 780.55
  A 0.11 0.10 -11.0 0 1 796.87 780.69
  L 776.99 780.69
  A 0.15 0.15 0.0 0 1 776.87 780.44
  Q 778.20 778.81 778.40 777.82
  Q 781.31 763.46 786.34 749.53
  Q 786.57 748.89 787.08 744.61
  A 0.17 0.17 0.0 0 1 787.40 744.57
  Z"
/>
<path fill="#020d18" d="
  M 787.35 857.08
  L 787.35 882.65
  A 2.79 2.79 0.0 0 1 784.56 885.44
  L 240.95 885.44
  A 2.79 2.79 0.0 0 1 238.16 882.65
  L 238.16 857.08
  A 2.79 2.79 0.0 0 1 240.95 854.29
  L 784.56 854.29
  A 2.79 2.79 0.0 0 1 787.35 857.08
  Z"
/>
</svg>
